<svg width="33" height="33" viewBox="0 0 33 33" fill="none" xmlns="http://www.w3.org/2000/svg">
<path d="M19.3596 25.4798C25.129 25.4798 28.0145 25.4798 29.8061 23.6868C31.5992 21.8949 31.5992 19.0095 31.5992 13.2399C31.5992 7.47027 31.5992 4.58487 29.8061 2.79301C28.0145 0.999997 25.129 1 19.3596 1H13.2397C7.4702 1 4.58469 0.999997 2.7931 2.79301C1 4.58487 1 7.47027 1 13.2399C1 19.0095 1 21.8949 2.7931 23.6868C3.79216 24.687 5.13087 25.1292 7.11983 25.3239" stroke="white" stroke-width="2" stroke-linecap="round" stroke-linejoin="round"/>
<path d="M11.71 13.2395L15.1524 16.2993L20.8897 10.1797" stroke="white" stroke-width="2" stroke-linecap="round" stroke-linejoin="round"/>
<path d="M19.3603 25.4785C17.4692 25.4785 15.3854 26.2434 13.4837 27.2303C10.4268 28.817 8.89834 29.611 8.14563 29.1051C7.39285 28.5997 7.53518 27.0316 7.82128 23.897L7.88555 23.1836" stroke="white" stroke-width="2" stroke-linecap="round"/>
</svg>
