<svg width="441" height="157" viewBox="0 0 441 157" fill="none" xmlns="http://www.w3.org/2000/svg">
<g filter="url(#filter0_d_503_16)">
<rect x="4" width="149" height="149" rx="18" fill="white"/>
<path d="M43.224 18.0605C37.6111 18.0605 32.2281 20.2903 28.2592 24.2592C24.2903 28.2281 22.0605 33.6111 22.0605 39.224V95.6599C22.0605 101.273 24.2903 106.656 28.2592 110.625C32.2281 114.594 37.6111 116.823 43.224 116.823H64.7472C64.507 115.663 64.3865 114.481 64.3874 113.296V84.7748L54.5394 94.6229C53.8977 95.2657 53.0328 95.6362 52.1247 95.6572C51.2167 95.6782 50.3355 95.3482 49.6647 94.7357L44.3739 89.9034C43.7186 89.2642 43.3375 88.3953 43.3111 87.4803C43.2846 86.5652 43.615 85.6758 44.2323 84.9998C44.8496 84.3239 45.7056 83.9144 46.6192 83.8579C47.5329 83.8015 48.4327 84.1024 49.1286 84.6972L51.9292 87.258L61.8902 77.29C62.2179 76.962 62.6072 76.7022 63.0359 76.5254C63.4645 76.3486 63.9238 76.2584 64.3874 76.26V70.9692C64.3874 62.3768 70.5742 56.0772 77.3113 52.3312C84.2952 48.4513 93.4519 46.2785 103.187 46.2785C109.444 46.2785 115.462 47.1815 120.823 48.8534V39.224C120.823 33.6111 118.594 28.2281 114.625 24.2592C110.656 20.2903 105.273 18.0605 99.6599 18.0605H43.224ZM120.823 56.3029C115.779 54.4264 109.713 53.333 103.187 53.333C85.6567 53.333 71.4419 61.234 71.4419 70.9692C71.4419 80.7044 85.6567 88.6054 103.187 88.6054C120.717 88.6054 134.932 80.7044 134.932 70.9692C134.932 64.8529 129.331 59.4704 120.823 56.3029ZM66.8847 42.0176C67.2132 42.3452 67.4738 42.7345 67.6516 43.163C67.8295 43.5915 67.921 44.0509 67.921 44.5149C67.921 44.9788 67.8295 45.4382 67.6516 45.8667C67.4738 46.2953 67.2132 46.6845 66.8847 47.0121L54.5394 59.3575C53.8968 59.9993 53.0313 60.3686 52.1233 60.3883C51.2153 60.408 50.3346 60.0767 49.6647 59.4633L44.3739 54.631C44.0144 54.3237 43.7203 53.9472 43.5092 53.524C43.2981 53.1007 43.1743 52.6394 43.1451 52.1673C43.1159 51.6952 43.182 51.2221 43.3394 50.7761C43.4967 50.3301 43.7422 49.9203 44.0611 49.5711C44.3801 49.2218 44.766 48.9403 45.196 48.7432C45.6259 48.5462 46.0911 48.4376 46.5639 48.4239C47.0366 48.4103 47.5073 48.4919 47.9479 48.6638C48.3885 48.8357 48.79 49.0945 49.1286 49.4248L51.9292 51.9785L61.8902 42.0176C62.2178 41.6891 62.607 41.4285 63.0356 41.2507C63.4641 41.0728 63.9235 40.9813 64.3874 40.9813C64.8514 40.9813 65.3108 41.0728 65.7393 41.2507C66.1678 41.4285 66.5571 41.6891 66.8847 42.0176ZM103.187 95.6599C112.922 95.6599 122.079 93.48 129.063 89.6071C131.13 88.4572 133.14 87.0675 134.939 85.445L134.932 113.296C134.932 123.038 120.717 130.932 103.187 130.932C85.6567 130.932 71.4419 123.031 71.4419 113.296V85.4661C73.2408 87.0887 75.2514 88.4643 77.3113 89.6142C84.2952 93.4941 93.4519 95.6669 103.187 95.6669V95.6599Z" fill="black"/>
<path d="M197.312 90.1562L203.719 88.875V54.3125H195.406L193.812 60.7188H189.625V49.1875H224.531V60.7188H220.375L218.75 54.3125H210.438V88.875L216.844 90.1562V94H197.312V90.1562ZM230 62C230.333 61.875 231.167 61.6146 232.5 61.2188C233.854 60.8021 235.448 60.4062 237.281 60.0312C239.115 59.6354 240.844 59.4375 242.469 59.4375C246.344 59.4375 249.281 60.2083 251.281 61.75C253.302 63.2917 254.312 65.8333 254.312 69.375V88.875L259.438 90.1562V93.6875L249.5 94L248.156 89.5312C246.781 90.9062 245.188 92.1042 243.375 93.125C241.583 94.125 239.677 94.625 237.656 94.625C234.635 94.625 232.281 93.7917 230.594 92.125C228.906 90.4375 228.062 88.0729 228.062 85.0312C228.062 81.4896 229.333 78.9583 231.875 77.4375C234.417 75.8958 238.052 75.125 242.781 75.125H247.906V70C247.906 68.125 247.385 66.6979 246.344 65.7188C245.302 64.7396 243.792 64.25 241.812 64.25C240.667 64.25 239.615 64.3229 238.656 64.4688C237.698 64.6146 236.938 64.7604 236.375 64.9062C235.833 65.0521 235.5 65.1458 235.375 65.1875L234.469 70H230.312L230 62ZM243.438 79.2812C240.271 79.2812 238 79.7083 236.625 80.5625C235.271 81.4167 234.594 82.8021 234.594 84.7188C234.594 86.1771 235.01 87.3438 235.844 88.2188C236.677 89.0938 237.823 89.5312 239.281 89.5312C240.698 89.5312 242.042 89.1458 243.312 88.375C244.583 87.6042 245.667 86.7708 246.562 85.875C247.458 84.9792 247.906 84.4896 247.906 84.4062V79.2812H243.438ZM269.5 89.25C269.5 89.2917 270.031 89.4062 271.094 89.5938C272.156 89.7604 273.417 89.8438 274.875 89.8438C279.688 89.8438 282.104 88.1562 282.125 84.7812C282.125 83.4062 281.531 82.375 280.344 81.6875C279.177 80.9792 277.354 80.2396 274.875 79.4688C272.604 78.7396 270.76 78.0417 269.344 77.375C267.948 76.6875 266.75 75.7083 265.75 74.4375C264.75 73.1458 264.25 71.4792 264.25 69.4375C264.25 66.2292 265.333 63.7604 267.5 62.0312C269.688 60.3021 272.51 59.4375 275.969 59.4375C277.469 59.4375 279.021 59.5833 280.625 59.875C282.25 60.1458 283.625 60.4375 284.75 60.75C285.896 61.0625 286.615 61.2708 286.906 61.375L286.719 70H282.562L281.531 65C281.406 64.9583 281.125 64.875 280.688 64.75C280.271 64.625 279.677 64.5104 278.906 64.4062C278.135 64.3021 277.281 64.25 276.344 64.25C272.552 64.25 270.656 65.6771 270.656 68.5312C270.656 69.9062 271.26 70.9688 272.469 71.7188C273.698 72.4479 275.542 73.2188 278 74.0312C280.208 74.8021 282.021 75.5208 283.438 76.1875C284.854 76.8333 286.052 77.7812 287.031 79.0312C288.01 80.2604 288.5 81.8125 288.5 83.6875C288.5 87.2292 287.167 89.9375 284.5 91.8125C281.833 93.6875 278.479 94.625 274.438 94.625C272.688 94.625 271.062 94.5208 269.562 94.3125C268.062 94.1042 266.865 93.8958 265.969 93.6875C265.073 93.4792 264.521 93.3229 264.312 93.2188V83.75H268.812L269.5 89.25ZM315.062 64.8125L312.188 63.9062V60.4062L326.25 60.0938V63.9062L321.719 64.6875H321.656L315.062 74.4688L323.312 88.875H323.375L328.188 90.4688V94H319.531L310.375 77.6875H304.812V88.875L308.969 90.4688V94H292.969V90.4688L298.406 88.875V49.8438L292.969 48.5625V45.0312L304.812 44.7188V72.875H310.25L315.062 64.8125ZM348.969 79.2812H332.344V73.8438H348.969V79.2812ZM360.812 54.3125L355.375 53.0312V49.5312L367.531 49.1875H375.531C381.844 49.1875 386.781 51.0833 390.344 54.875C393.906 58.6458 395.688 64.0104 395.688 70.9688C395.688 75.6146 394.823 79.6771 393.094 83.1562C391.385 86.6354 388.927 89.3125 385.719 91.1875C382.51 93.0625 378.802 94 374.594 94H355.375V90.1562L360.812 88.875V54.3125ZM374.906 88.875C379.094 88.875 382.375 87.4167 384.75 84.5C387.146 81.5833 388.344 77.1771 388.344 71.2812C388.344 65.5312 387.188 61.2708 384.875 58.5C382.583 55.7083 379.365 54.3125 375.219 54.3125H367.531V88.875H374.906ZM407.25 54.3125L401.812 53.0312V49.5312L413.656 49.1875H421C425.188 49.1875 428.531 50.1354 431.031 52.0312C433.531 53.9062 434.781 56.6979 434.781 60.4062C434.781 65.9062 432 69.3646 426.438 70.7812C429.729 71.5521 432.208 72.8333 433.875 74.625C435.542 76.3958 436.375 78.5833 436.375 81.1875C436.375 85.5833 435 88.8229 432.25 90.9062C429.5 92.9688 425.438 94 420.062 94H401.812V90.1562L407.25 88.875V54.3125ZM418.438 68.4062C421.438 68.4062 423.792 67.8021 425.5 66.5938C427.208 65.3646 428.062 63.5104 428.062 61.0312C428.062 58.8646 427.375 57.2083 426 56.0625C424.646 54.8958 422.875 54.3125 420.688 54.3125H413.656V68.4062H418.438ZM420.375 88.875C423.396 88.875 425.698 88.25 427.281 87C428.865 85.7292 429.656 83.9062 429.656 81.5312C429.656 78.4688 428.719 76.3125 426.844 75.0625C424.969 73.8125 422.167 73.1875 418.438 73.1875H413.656V88.875H420.375Z" fill="white"/>
</g>
<defs>
<filter id="filter0_d_503_16" x="0" y="0" width="440.375" height="157" filterUnits="userSpaceOnUse" color-interpolation-filters="sRGB">
<feFlood flood-opacity="0" result="BackgroundImageFix"/>
<feColorMatrix in="SourceAlpha" type="matrix" values="0 0 0 0 0 0 0 0 0 0 0 0 0 0 0 0 0 0 127 0" result="hardAlpha"/>
<feOffset dy="4"/>
<feGaussianBlur stdDeviation="2"/>
<feComposite in2="hardAlpha" operator="out"/>
<feColorMatrix type="matrix" values="0 0 0 0 0 0 0 0 0 0 0 0 0 0 0 0 0 0 0.25 0"/>
<feBlend mode="normal" in2="BackgroundImageFix" result="effect1_dropShadow_503_16"/>
<feBlend mode="normal" in="SourceGraphic" in2="effect1_dropShadow_503_16" result="shape"/>
</filter>
</defs>
</svg>
