<svg width="66" height="66" viewBox="0 0 66 66" fill="none" xmlns="http://www.w3.org/2000/svg">
<rect width="66" height="66" rx="18" fill="white"/>
<path d="M17.3744 8C14.8882 8 12.5037 8.98766 10.7457 10.7457C8.98766 12.5037 8 14.8882 8 17.3744V42.3729C8 44.8591 8.98766 47.2435 10.7457 49.0016C12.5037 50.7596 14.8882 51.7473 17.3744 51.7473H26.9082C26.8018 51.2333 26.7484 50.7097 26.7488 50.1849V37.5513L22.3866 41.9135C22.1024 42.1982 21.7192 42.3624 21.317 42.3717C20.9148 42.381 20.5245 42.2348 20.2274 41.9635L17.8838 39.823C17.5935 39.5399 17.4247 39.155 17.413 38.7497C17.4013 38.3444 17.5476 37.9504 17.8211 37.651C18.0945 37.3515 18.4736 37.1702 18.8783 37.1452C19.2831 37.1201 19.6816 37.2534 19.9899 37.5169L21.2304 38.6512L25.6426 34.2359C25.7878 34.0906 25.9603 33.9755 26.1501 33.8972C26.34 33.8189 26.5435 33.7789 26.7488 33.7796V31.436C26.7488 27.63 29.4893 24.8396 32.4735 23.1803C35.567 21.4617 39.623 20.4992 43.9353 20.4992C46.707 20.4992 49.3724 20.8992 51.7473 21.6398V17.3744C51.7473 14.8882 50.7596 12.5037 49.0016 10.7457C47.2435 8.98766 44.8591 8 42.3729 8H17.3744ZM51.7473 24.9396C49.513 24.1084 46.8257 23.624 43.9353 23.624C36.1701 23.624 29.8736 27.1238 29.8736 31.436C29.8736 35.7483 36.1701 39.248 43.9353 39.248C51.7004 39.248 57.9969 35.7483 57.9969 31.436C57.9969 28.7268 55.5158 26.3426 51.7473 24.9396ZM27.855 18.6118C28.0005 18.757 28.1159 18.9294 28.1947 19.1192C28.2735 19.309 28.314 19.5125 28.314 19.718C28.314 19.9235 28.2735 20.127 28.1947 20.3168C28.1159 20.5067 28.0005 20.6791 27.855 20.8242L22.3866 26.2926C22.102 26.5769 21.7186 26.7405 21.3164 26.7492C20.9142 26.7579 20.5241 26.6112 20.2274 26.3395L17.8838 24.199C17.7245 24.0629 17.5943 23.8961 17.5007 23.7086C17.4072 23.5212 17.3524 23.3168 17.3395 23.1077C17.3266 22.8986 17.3558 22.689 17.4255 22.4915C17.4952 22.2939 17.6039 22.1124 17.7452 21.9577C17.8865 21.803 18.0575 21.6783 18.2479 21.591C18.4383 21.5037 18.6444 21.4556 18.8538 21.4496C19.0632 21.4435 19.2717 21.4796 19.4669 21.5558C19.6621 21.632 19.8399 21.7466 19.9899 21.8929L21.2304 23.0241L25.6426 18.6118C25.7878 18.4663 25.9602 18.3509 26.15 18.2721C26.3398 18.1934 26.5433 18.1528 26.7488 18.1528C26.9543 18.1528 27.1578 18.1934 27.3476 18.2721C27.5375 18.3509 27.7099 18.4663 27.855 18.6118ZM43.9353 42.3729C48.2475 42.3729 52.3035 41.4073 55.397 39.6918C56.3126 39.1824 57.2032 38.5668 58 37.8481L57.9969 50.1849C57.9969 54.5002 51.7004 57.9969 43.9353 57.9969C36.1701 57.9969 29.8736 54.4971 29.8736 50.1849V37.8575C30.6705 38.5762 31.561 39.1855 32.4735 39.6949C35.567 41.4135 39.623 42.376 43.9353 42.376V42.3729Z" fill="black"/>
</svg>
