<svg width="61" height="61" viewBox="0 0 61 61" fill="none" xmlns="http://www.w3.org/2000/svg">
<path d="M0 0.74845V0.74845C0 0.314822 0.375475 0 0.809103 0H60.1909C60.6245 0 61 0.314849 61 0.74845V0.74845V60.2516V60.2516C61 60.6852 60.6245 61 60.191 61H0.809056C0.375456 61 0 60.6852 0 60.2516V60.2516V0.74845Z" fill="white"/>
<g clip-path="url(#clip0_432_22)">
<path d="M14.3744 5C11.8882 5 9.50375 5.98766 7.7457 7.7457C5.98766 9.50375 5 11.8882 5 14.3744V39.3729C5 41.8591 5.98766 44.2435 7.7457 46.0016C9.50375 47.7596 11.8882 48.7473 14.3744 48.7473H23.9082C23.8018 48.2333 23.7484 47.7097 23.7488 47.1849V34.5513L19.3866 38.9135C19.1024 39.1982 18.7192 39.3624 18.317 39.3717C17.9148 39.381 17.5245 39.2348 17.2274 38.9635L14.8838 36.823C14.5935 36.5399 14.4247 36.155 14.413 35.7497C14.4013 35.3444 14.5476 34.9504 14.8211 34.651C15.0945 34.3515 15.4736 34.1702 15.8783 34.1452C16.2831 34.1201 16.6816 34.2534 16.9899 34.5169L18.2304 35.6512L22.6426 31.2359C22.7878 31.0906 22.9603 30.9755 23.1501 30.8972C23.34 30.8189 23.5435 30.7789 23.7488 30.7796V28.436C23.7488 24.63 26.4893 21.8396 29.4735 20.1803C32.567 18.4617 36.623 17.4992 40.9353 17.4992C43.707 17.4992 46.3724 17.8992 48.7473 18.6398V14.3744C48.7473 11.8882 47.7596 9.50375 46.0016 7.7457C44.2435 5.98766 41.8591 5 39.3729 5H14.3744ZM48.7473 21.9396C46.513 21.1084 43.8257 20.624 40.9353 20.624C33.1701 20.624 26.8736 24.1238 26.8736 28.436C26.8736 32.7483 33.1701 36.248 40.9353 36.248C48.7004 36.248 54.9969 32.7483 54.9969 28.436C54.9969 25.7268 52.5158 23.3426 48.7473 21.9396ZM24.855 15.6118C25.0005 15.757 25.1159 15.9294 25.1947 16.1192C25.2735 16.309 25.314 16.5125 25.314 16.718C25.314 16.9235 25.2735 17.127 25.1947 17.3168C25.1159 17.5067 25.0005 17.6791 24.855 17.8242L19.3866 23.2926C19.102 23.5769 18.7186 23.7405 18.3164 23.7492C17.9142 23.7579 17.5241 23.6112 17.2274 23.3395L14.8838 21.199C14.7245 21.0629 14.5943 20.8961 14.5007 20.7086C14.4072 20.5212 14.3524 20.3168 14.3395 20.1077C14.3266 19.8986 14.3558 19.689 14.4255 19.4915C14.4952 19.2939 14.6039 19.1124 14.7452 18.9577C14.8865 18.803 15.0575 18.6783 15.2479 18.591C15.4383 18.5037 15.6444 18.4556 15.8538 18.4496C16.0632 18.4435 16.2717 18.4796 16.4669 18.5558C16.6621 18.632 16.8399 18.7466 16.9899 18.8929L18.2304 20.0241L22.6426 15.6118C22.7878 15.4663 22.9602 15.3509 23.15 15.2721C23.3398 15.1934 23.5433 15.1528 23.7488 15.1528C23.9543 15.1528 24.1578 15.1934 24.3476 15.2721C24.5375 15.3509 24.7099 15.4663 24.855 15.6118V15.6118ZM40.9353 39.3729C45.2475 39.3729 49.3035 38.4073 52.397 36.6918C53.3126 36.1824 54.2032 35.5668 55 34.8481L54.9969 47.1849C54.9969 51.5002 48.7004 54.9969 40.9353 54.9969C33.1701 54.9969 26.8736 51.4971 26.8736 47.1849V34.8575C27.6705 35.5762 28.561 36.1856 29.4735 36.6949C32.567 38.4135 36.623 39.376 40.9353 39.376V39.3729Z" fill="black"/>
</g>
<defs>
<clipPath id="clip0_432_22">
<rect width="50" height="49.9969" fill="white" transform="translate(5 5)"/>
</clipPath>
</defs>
</svg>
