<svg width="41" height="41" viewBox="0 0 41 41" fill="none" xmlns="http://www.w3.org/2000/svg">
<path d="M36.4195 34.2134L26.0214 23.8152C27.635 21.7292 28.5078 19.1787 28.5078 16.4961C28.5078 13.285 27.2546 10.274 24.9884 8.00381C22.7222 5.73359 19.7032 4.48438 16.4961 4.48438C13.289 4.48438 10.27 5.7376 8.00381 8.00381C5.73359 10.27 4.48438 13.285 4.48438 16.4961C4.48438 19.7032 5.7376 22.7222 8.00381 24.9884C10.27 27.2586 13.285 28.5078 16.4961 28.5078C19.1787 28.5078 21.7252 27.635 23.8112 26.0254L34.2094 36.4195C34.2399 36.45 34.2761 36.4742 34.3159 36.4908C34.3558 36.5073 34.3985 36.5158 34.4416 36.5158C34.4847 36.5158 34.5274 36.5073 34.5673 36.4908C34.6071 36.4742 34.6433 36.45 34.6738 36.4195L36.4195 34.6778C36.45 34.6473 36.4742 34.6111 36.4908 34.5713C36.5073 34.5315 36.5158 34.4887 36.5158 34.4456C36.5158 34.4025 36.5073 34.3598 36.4908 34.3199C36.4742 34.2801 36.45 34.2439 36.4195 34.2134V34.2134ZM22.8383 22.8383C21.1406 24.5319 18.8904 25.4648 16.4961 25.4648C14.1018 25.4648 11.8516 24.5319 10.1539 22.8383C8.46025 21.1406 7.52734 18.8904 7.52734 16.4961C7.52734 14.1018 8.46025 11.8476 10.1539 10.1539C11.8516 8.46025 14.1018 7.52734 16.4961 7.52734C18.8904 7.52734 21.1446 8.45625 22.8383 10.1539C24.5319 11.8516 25.4648 14.1018 25.4648 16.4961C25.4648 18.8904 24.5319 21.1446 22.8383 22.8383Z" fill="white"/>
</svg>
