<svg width="46" height="46" viewBox="0 0 46 46" fill="none" xmlns="http://www.w3.org/2000/svg">
<path d="M45 23C45 10.8497 35.1503 1 23 1C10.8497 1 1 10.8497 1 23V24C1 36.1503 10.8497 46 23 46C35.1503 46 45 36.1503 45 24V23Z" fill="#FF6060" stroke="white"/>
<path d="M34.9831 23.5577C34.9831 30.1315 29.5467 35.5412 22.7415 35.5412C15.9364 35.5412 10.5 30.1315 10.5 23.5577C10.5 16.9839 15.9364 11.5742 22.7415 11.5742C29.5467 11.5742 34.9831 16.9839 34.9831 23.5577Z" fill="#FF6060" stroke="white" stroke-width="3"/>
<path d="M26.4665 19.2844C26.6602 19.1 26.9179 18.998 27.1853 19C27.4528 19.0021 27.709 19.1079 27.8998 19.2952C28.0907 19.4825 28.2014 19.7367 28.2084 20.004C28.2155 20.2713 28.1184 20.531 27.9377 20.7281L22.4515 27.5894C22.3571 27.691 22.2433 27.7725 22.1167 27.8291C21.9901 27.8857 21.8534 27.9162 21.7148 27.9188C21.5762 27.9213 21.4385 27.8959 21.3099 27.844C21.1813 27.7922 21.0645 27.7149 20.9665 27.6169L17.3282 23.9786C17.2269 23.8842 17.1456 23.7703 17.0893 23.6438C17.0329 23.5173 17.0026 23.3808 17.0002 23.2423C16.9977 23.1039 17.0232 22.9663 17.0751 22.8379C17.1269 22.7095 17.2041 22.5929 17.302 22.4949C17.4 22.397 17.5166 22.3198 17.645 22.2679C17.7734 22.2161 17.911 22.1906 18.0494 22.193C18.1879 22.1955 18.3245 22.2258 18.451 22.2822C18.5775 22.3385 18.6913 22.4198 18.7857 22.5211L21.665 25.399L26.4403 19.3146C26.4489 19.304 26.4581 19.2939 26.4678 19.2844H26.4665Z" fill="white"/>
</svg>
